<svg width="24" height="24" viewBox="0 0 24 24" fill="none" xmlns="http://www.w3.org/2000/svg">
<path d="M12 5.33333L7.33333 0H0L9.33333 11.3333L17.014 8.16667L12 5.33333Z" fill="#55ACEE"/>
<path d="M16.6667 0L12 5.33333L15.5933 10.208L16.4113 9.21533L24 0H16.6667Z" fill="#3B88C3"/>
<path d="M15.47 10.684C15.5233 10.5393 15.5573 10.3853 15.5573 10.222C15.5573 9.86838 15.4168 9.52924 15.1668 9.2792C14.9167 9.02915 14.5776 8.88867 14.224 8.88867H9.77929C9.42567 8.88867 9.08653 9.02915 8.83648 9.2792C8.58643 9.52924 8.44596 9.86838 8.44596 10.222C8.44596 10.3853 8.47929 10.5393 8.53329 10.684C6.36129 11.9013 4.89063 14.222 4.89063 16.8887C4.88996 20.816 8.07396 24 12.0013 24C15.9286 24 19.1126 20.816 19.1126 16.8887C19.1126 14.222 17.642 11.9013 15.47 10.684Z" fill="#FF8A3B"/>
<path d="M9.41359 19.5666L10.1989 18.7813C10.2381 18.7387 10.2919 18.7124 10.3496 18.7077C10.4073 18.703 10.4647 18.7202 10.5103 18.756C10.5103 18.756 11.2829 19.33 11.8809 19.33C12.4176 19.33 12.9663 18.8813 12.9663 18.3326C12.9663 17.784 12.4049 17.3233 11.4829 17.3233H11.0569C10.9949 17.3211 10.936 17.2955 10.8922 17.2515C10.8484 17.2076 10.8229 17.1487 10.8209 17.0866V16.052C10.8209 15.9146 10.9329 15.8153 11.0569 15.8153H11.4829C12.3556 15.8153 12.8163 15.392 12.8163 14.856C12.8163 14.3193 12.3556 13.9213 11.8189 13.9213C11.2703 13.9213 10.9216 14.208 10.7349 14.4193C10.6469 14.5193 10.4983 14.5193 10.3989 14.4326L9.63826 13.6846C9.53759 13.5966 9.55026 13.448 9.63826 13.3606C9.63826 13.3606 10.6603 12.2633 12.0183 12.2633C13.4643 12.2633 14.7109 13.1486 14.7109 14.5446C14.7109 15.504 13.9876 16.2146 13.4269 16.476V16.514C14.0129 16.7633 14.9349 17.536 14.9349 18.608C14.9349 19.9666 13.7509 20.9893 12.0303 20.9893C10.4609 20.9893 9.66226 20.216 9.40092 19.88C9.32559 19.7906 9.33892 19.6533 9.41359 19.5666Z" fill="white"/>
</svg>
